# xmcd
#
# Track frame offsets: 
#        150
#        19680
#        44209
#        67879
#        87880
#        102936
#        120004
#        144772
#        167327
#        189356
#        194187
#        215937
#        237408
#        249165
#        271021
#
# Disc length: 3947 seconds
#
# Revision: 0
# Processed by: cddbd v1.5.2PL0 Copyright (c) Steve Scherf et al.
# Submitted via: ExactAudioCopy v0.99pb5
#
DISCID=c80f690f
DTITLE=The Black Crowes - Trump Plaza Hotel, Atlantic City, August 24
DYEAR=1990
DGENRE=Blues
TTITLE0=Twice as Hard
TTITLE1=Kick The Devil Outtta Me
TTITLE2=Sister Luck
TTITLE3=Jealous Guy
TTITLE4=Hard To Handle
TTITLE5=Could I've Been So Blind
TTITLE6=You're Such A Pity
TTITLE7=Stare It Cold
TTITLE8=Jealous Again
TTITLE9=Encore -> Break
TTITLE10=Struttin' Blues
TTITLE11=Honky Tonk Woman
TTITLE12=The Cabaret, San Jose, November 3rd - Thick and Thin
TTITLE13=The Cabaret, San Jose, November 3rd - You're Wrong
TTITLE14=The Cabaret, San Jose, November 3rd - She Talks To Angels
EXTD=
EXTT0=
EXTT1=
EXTT2=
EXTT3=
EXTT4=
EXTT5=
EXTT6=
EXTT7=
EXTT8=
EXTT9=
EXTT10=
EXTT11=
EXTT12=
EXTT13=
EXTT14=
PLAYORDER=
